<svg width="136" height="48" viewBox="0 0 136 48" fill="none" xmlns="http://www.w3.org/2000/svg">
<path d="M18.8298 47.1701L20.2617 37.1534H20.9482C22.8116 37.1534 23.5178 39.1413 23.0862 42.21C22.6547 45.2787 21.3601 47.2666 19.4967 47.2666C19.2417 47.2666 19.0455 47.228 18.8298 47.1701ZM15.7698 47.9035H18.5748C18.8298 47.9421 19.1044 47.9614 19.3986 47.9614C22.5566 47.9614 24.9104 45.3173 25.3616 42.21C25.8127 39.1027 24.1847 36.5165 21.0267 36.5165H17.3783L17.339 36.7867C17.7313 36.7867 18.0648 37.2113 17.9667 37.8868L16.731 46.5332C16.6525 47.2087 16.1817 47.6333 15.7894 47.6333L15.7698 47.9035Z" fill="white"/>
<path d="M40.3702 46.5332L41.351 39.7975H41.0764C40.2526 40.4151 39.1737 40.6467 38.2518 40.6467L38.2322 40.8976C38.6245 40.8976 38.9383 41.3222 38.8599 41.9977L38.193 46.5332C38.1145 47.2087 37.6438 47.6333 37.2515 47.6333L37.2318 47.9035H40.9587L40.9783 47.6333C40.6056 47.6333 40.2918 47.2087 40.3702 46.5332ZM40.7233 36.42C40.0368 36.42 39.3895 36.9797 39.2914 37.6552C39.1933 38.3307 39.6837 38.8904 40.3702 38.8904C41.0568 38.8904 41.7041 38.3307 41.8021 37.6552C41.9002 36.9797 41.4098 36.42 40.7233 36.42Z" fill="white"/>
<path d="M53.4951 45.877C53.1028 45.877 52.7693 46.2823 52.7301 46.6104C52.5928 47.4982 53.8285 48 55.2212 48C56.8885 48 58.6734 47.3631 58.8892 45.9156C59.2423 43.4645 55.2997 43.2715 55.5547 41.4959C55.6527 40.8783 56.1823 40.3958 56.81 40.3958C57.1042 40.3958 57.3004 40.5502 57.3592 40.8783C57.0258 41.1099 56.7708 41.4573 56.7316 41.8433C56.6335 42.4802 57.0846 42.982 57.7123 42.982C58.34 42.982 58.9481 42.4802 59.0461 41.8433C59.2031 40.6274 58.0654 39.6817 56.8296 39.6817C54.5151 39.6817 53.5343 41.0134 53.4166 41.8047C53.0439 44.4102 56.8885 44.5067 56.6727 46.1086C56.5746 46.7455 56.1039 47.2473 55.28 47.2473C54.5151 47.2473 53.7501 46.8034 53.4951 45.877Z" fill="white"/>
<path d="M74.8781 46.5332L75.545 41.9784C76.0157 41.3029 76.5453 40.9169 77.0357 40.9169C77.8399 40.9169 77.8595 41.631 77.7811 42.2679L77.1534 46.5332C77.0749 47.2087 76.6042 47.6333 76.2315 47.6333L76.2119 47.9035H79.9387L79.9584 47.6333C79.5857 47.6333 79.2718 47.2087 79.3503 46.5332L79.978 42.2679C80.1545 40.9748 79.6837 39.7396 78.0949 39.7396C77.0946 39.7396 76.2315 40.2607 75.6823 41.0327L76.4276 35.6866H76.153C75.3488 36.2849 74.27 36.5165 73.3481 36.5165L73.3089 36.7867C73.7012 36.7867 74.0346 37.2113 73.9365 37.8868L72.7008 46.5332C72.6223 47.2087 72.1516 47.6333 71.7593 47.6333L71.7397 47.9035H75.4665L75.4861 47.6333C75.1134 47.6333 74.7996 47.2087 74.8781 46.5332Z" fill="white"/>
<path d="M98.7713 40.3958C99.5559 40.3958 99.7128 41.2643 99.4186 43.2522L96.7117 44.1786C96.7117 44.0628 96.7313 43.947 96.7509 43.8505C97.0451 41.7468 97.7709 40.3958 98.7713 40.3958ZM96.6725 44.8927L101.615 43.2136C101.851 41.052 100.89 39.701 98.8693 39.701C96.5744 39.701 94.9071 41.5731 94.5736 43.8505C94.2794 45.9156 95.3582 47.9807 97.5944 47.9807C99.1047 47.9807 100.556 46.7648 101.38 45.3752L101.027 44.9506C100.458 45.877 99.2616 46.7841 98.2809 46.7841C97.4571 46.7841 96.7117 46.2437 96.6725 44.8927Z" fill="white"/>
<path d="M114.665 45.877C114.272 45.877 113.939 46.2823 113.9 46.6104C113.762 47.4982 114.998 48 116.391 48C118.058 48 119.843 47.3631 120.059 45.9156C120.412 43.4645 116.469 43.2715 116.724 41.4959C116.822 40.8783 117.352 40.3958 117.979 40.3958C118.274 40.3958 118.47 40.5502 118.529 40.8783C118.195 41.1099 117.94 41.4573 117.901 41.8433C117.803 42.4802 118.254 42.982 118.882 42.982C119.509 42.982 120.118 42.4802 120.216 41.8433C120.373 40.6274 119.235 39.6817 117.999 39.6817C115.685 39.6817 114.704 41.0134 114.586 41.8047C114.213 44.4102 118.058 44.5067 117.842 46.1086C117.744 46.7455 117.273 47.2473 116.45 47.2473C115.685 47.2473 114.92 46.8034 114.665 45.877Z" fill="white"/>
<path d="M17.5527 17.7572C16.5764 18.5624 15.4565 18.8873 14.1931 18.7319C13.0301 18.6048 12.0682 18.0821 11.3216 17.1921C10.532 16.2739 10.2161 15.2003 10.374 13.9712C10.5176 12.827 11.0201 11.9088 11.8672 11.1883C12.6568 10.5243 13.5901 10.1712 14.6525 10.1571C15.9159 10.1429 16.9927 10.5808 17.8685 11.4708C18.7587 12.3608 19.175 13.4203 19.1176 14.6493C19.0602 15.9066 18.5433 16.952 17.5527 17.7572ZM18.6007 10.3266C17.5096 9.39421 16.2462 8.92804 14.7961 8.92804C13.0876 8.92804 11.6662 9.54961 10.532 10.8069C10.5176 10.8069 10.5176 10.821 10.5032 10.8351C9.46953 12.0359 9.02445 13.4203 9.15367 15.0025C9.28288 16.5988 9.94332 17.9126 11.1493 18.9438C11.1493 18.9438 11.1493 18.9438 11.1637 18.958L20.2375 26.5581C18.4715 27.335 16.6338 27.7306 14.7099 27.7306C11.9246 27.7306 9.38338 26.9536 7.08622 25.3856C4.01377 23.309 2.14733 20.4695 1.47254 16.8672C0.797746 13.2649 1.51561 9.95928 3.62612 6.95031C4.90392 5.11384 6.555 3.68705 8.55066 2.66993C10.4889 1.6952 12.5563 1.20076 14.7386 1.20076C17.5239 1.20076 20.0652 1.97773 22.3623 3.54578C24.76 5.17035 26.4398 7.3176 27.4161 10.0017C28.3637 12.6292 28.4642 15.285 27.7176 17.955L22.9079 13.9289L18.6007 10.3266ZM29.182 11.8381C28.4498 7.91091 26.3967 4.81718 23.0515 2.54279C20.539 0.847593 17.768 0 14.7386 0C12.3123 0 10.0295 0.550938 7.89023 1.66694C5.75101 2.76882 3.98506 4.29449 2.60677 6.2581C0.309605 9.5496 -0.465687 13.166 0.266531 17.0932C0.998749 21.0204 3.03748 24.1142 6.38272 26.3744C8.89524 28.0838 11.6805 28.9314 14.7099 28.9314C17.0214 28.9314 19.2037 28.4228 21.2568 27.4198C22.6064 28.5499 24.0996 29.0444 25.7507 28.9031C27.2869 28.776 28.579 28.1544 29.6128 27.0101C29.6271 26.996 29.6271 26.996 29.6271 26.9819C30.6178 25.8376 31.0772 24.5097 30.9767 23.0264C30.8762 21.416 30.144 20.0174 28.7513 18.8308C29.4835 16.5564 29.6271 14.2255 29.182 11.8381Z" fill="white"/>
<path d="M36.0735 5.66478C36.0735 4.43576 36.5186 3.37627 37.3944 2.50041C38.2845 1.63869 39.347 1.20076 40.5961 1.20076C41.8451 1.20076 42.9076 1.62456 43.8121 2.47216C44.7022 3.33389 45.1473 4.33688 45.1473 5.50939V21.1335C45.1473 23.2101 45.6785 24.8629 46.7553 26.106C47.5737 27.0525 48.4782 27.6035 49.4688 27.7306C45.779 27.7306 42.6204 26.4309 39.9931 23.8458C37.38 21.2606 36.0735 18.1245 36.0735 14.4657L36.0735 5.66478ZM54.2642 1.70932C53.1587 2.82533 52.5987 4.15323 52.5987 5.66478V14.4657C52.5987 15.3274 52.2972 16.0479 51.6799 16.6553C51.0625 17.2628 50.3303 17.5594 49.4688 17.5594C48.6074 17.5594 47.8752 17.2628 47.2722 16.6553C46.6548 16.0479 46.3533 15.3274 46.3533 14.4657V5.66478C46.3533 4.15323 45.7934 2.83945 44.6879 1.72345C43.5537 0.579193 42.1897 0 40.5961 0C39.0168 0 37.6672 0.550938 36.5473 1.66694C35.4275 2.76882 34.8675 4.09673 34.8675 5.66478V14.4657C34.8675 18.4494 36.2889 21.8539 39.146 24.6934C42.0031 27.5187 45.4488 28.9314 49.4689 28.9314C53.5032 28.9314 56.9346 27.5187 59.7917 24.6934C62.6488 21.8539 64.0845 18.4494 64.0845 14.4657V5.66478C64.0845 4.09673 63.5246 2.76882 62.4047 1.66694C61.2849 0.550938 59.9353 0 58.356 0C56.7623 0 55.3984 0.565064 54.2642 1.70932Z" fill="white"/>
<path d="M77.1927 23.2666C77.1927 24.4956 76.7476 25.5551 75.8718 26.4309C74.996 27.2927 73.9336 27.7306 72.6845 27.7306C71.622 27.7306 70.6745 27.4057 69.8561 26.7559C69.0377 26.106 68.5209 25.2867 68.2768 24.2837C68.205 23.9447 68.1619 23.6056 68.1619 23.2666V20.6673V18.0256C68.1619 16.9378 68.2768 16.0902 68.4922 15.4828C68.8798 14.3668 69.7269 13.3214 71.0047 12.3467C71.4498 12.0076 72.0958 11.5697 72.9142 11.047C74.0484 10.3266 74.7806 9.87453 75.0821 9.66262C76.1589 8.94217 76.8768 7.88267 77.2357 6.48413L77.1927 23.2666ZM68.6214 1.70932C67.5159 2.82532 66.9559 4.15323 66.9559 5.66478V23.2666C66.9559 24.8346 67.5159 26.1625 68.6357 27.2644C69.7556 28.3804 71.1052 28.9314 72.6845 28.9314C74.2638 28.9314 75.6134 28.3804 76.7332 27.2644C77.8387 26.1625 78.3987 24.8346 78.3987 23.2666C78.4274 16.8248 78.4417 13.5192 78.4417 13.3638V5.66478C78.4417 4.09672 77.8818 2.76882 76.7619 1.66694C75.6421 0.550938 74.2925 0 72.7132 0C71.1195 0 69.7556 0.565058 68.6214 1.70932Z" fill="white"/>
<path d="M104.716 4.47814C105.807 5.50939 106.352 6.65365 106.352 7.91092C106.352 8.94216 106.051 9.84627 105.448 10.6232C104.888 11.3437 104.156 11.8381 103.251 12.1348C102.361 12.4314 101.471 12.4738 100.581 12.2478C99.6331 12.0076 98.8434 11.485 98.2261 10.708C98.2117 10.6939 97.982 10.3548 97.5369 9.66263C97.0919 8.98455 96.6611 8.39123 96.2448 7.86854C94.8808 6.17334 93.4451 5.02909 91.952 4.43577C90.947 4.04022 89.9276 3.92721 88.8795 4.09673C87.8314 4.28037 86.9126 4.70417 86.1516 5.39638C88.7934 2.5993 92.0525 1.20076 95.9146 1.20076C99.4895 1.20076 102.433 2.28851 104.716 4.47814ZM101.758 15.2709C100.322 15.2709 99.0732 15.7512 97.9964 16.7118C97.0201 17.6018 95.9146 17.7854 94.6798 17.2486C93.4595 16.7259 92.8421 15.7936 92.8421 14.4657C92.8421 13.6181 93.1436 12.8976 93.7466 12.3043C94.3496 11.711 95.0675 11.4143 95.9146 11.4143C96.4314 11.4143 97.0775 11.6262 97.8384 12.0642C98.9152 13.0813 100.222 13.5898 101.729 13.5898C103.064 13.5898 104.227 13.2225 105.232 12.488C106.166 11.7957 106.84 10.9058 107.242 9.80389C107.63 8.68788 107.688 7.586 107.386 6.47C107.056 5.26924 106.381 4.23799 105.333 3.40452C102.82 1.13013 99.6905 0 95.9146 0C91.8515 0 88.4057 1.42679 85.5486 4.28037C82.7202 7.1057 81.3132 10.4961 81.3132 14.4657C81.3132 18.5624 82.8064 22.0376 85.7927 24.8911C88.8077 27.7589 92.4114 29.1009 96.6037 28.9172C99.2454 28.8042 101.672 28.0414 103.868 26.6428C106.324 25.0748 107.558 23.1959 107.558 21.0063C107.558 19.3535 106.955 17.9691 105.764 16.8531C104.629 15.7936 103.294 15.2709 101.758 15.2709Z" fill="white"/>
<path d="M134.765 23.761C134.765 23.7893 134.751 23.8599 134.737 23.9729C134.722 24.0859 134.708 24.1565 134.694 24.1707C134.694 24.2131 134.679 24.2837 134.65 24.3967C134.622 24.4956 134.607 24.5662 134.593 24.5803L134.521 24.8064C134.478 24.9194 134.449 24.9759 134.449 24.99L134.349 25.2019C134.292 25.3149 134.263 25.3714 134.263 25.3714C134.248 25.4138 134.205 25.4844 134.134 25.5975C134.062 25.7105 134.033 25.767 134.047 25.7528L133.875 25.9789C133.775 26.106 133.746 26.1484 133.775 26.106L133.473 26.4309C133.172 26.7417 132.813 26.996 132.425 27.2079C131.75 27.5611 131.047 27.7447 130.286 27.7447C129.668 27.7447 129.051 27.6176 128.462 27.3492C127.96 27.1231 127.501 26.8123 127.113 26.4309C122.418 21.8398 119.805 19.3252 119.303 18.859C118.642 18.3081 117.766 17.9408 116.661 17.7713C115.584 17.6583 114.608 17.8278 113.732 18.2657C112.77 18.746 112.167 19.4524 111.923 20.3988V8.53247C112.052 10.1005 113.071 10.9905 114.967 11.2024C116.733 11.4143 118.168 11.0329 119.303 10.0723C119.618 9.80386 120.911 8.57485 123.179 6.35697L127.113 2.50039C127.989 1.62454 129.051 1.18661 130.286 1.18661C131.535 1.18661 132.597 1.62454 133.473 2.50039C134.349 3.36212 134.794 4.42162 134.794 5.65064C134.794 6.87965 134.349 7.93915 133.473 8.80088C133.487 8.78675 133.344 8.92802 133.042 9.22468L131.894 10.3407L128.261 13.9147L127.974 14.1973L127.702 14.4657L133.473 20.1304C133.43 20.0881 133.459 20.1163 133.545 20.2152C133.602 20.2717 133.631 20.3 133.631 20.3L133.674 20.3423L133.717 20.3988L133.846 20.5542C133.89 20.6107 133.947 20.6673 133.99 20.7379C134.033 20.8085 134.062 20.865 134.105 20.9074L134.22 21.1052L134.32 21.2888L134.406 21.5007C134.449 21.5714 134.478 21.642 134.493 21.6844L134.564 21.8963L134.622 22.094C134.636 22.1364 134.665 22.207 134.679 22.3059L134.722 22.5037C134.737 22.5461 134.737 22.6167 134.751 22.7156C134.765 22.8145 134.765 22.871 134.78 22.9134V23.1394C134.794 23.2383 134.794 23.3089 134.794 23.3372C134.794 23.3795 134.794 23.4502 134.78 23.5632C134.765 23.6621 134.765 23.7327 134.765 23.761ZM132.741 11.2024L133.832 10.1288L134.306 9.66262C134.306 9.66262 134.306 9.66262 134.32 9.64849C135.44 8.54662 136 7.21871 136 5.65065C136 4.0826 135.44 2.75469 134.32 1.65282C133.215 0.550938 131.865 0 130.286 0C128.721 0 127.371 0.550938 126.266 1.65282L122.117 5.72129C122.117 4.09672 121.542 2.74056 120.408 1.62456C119.303 0.536808 117.967 0 116.402 0C114.837 0 113.488 0.550938 112.368 1.65282C111.262 2.75469 110.703 4.0826 110.703 5.65065V23.2807C110.703 24.8488 111.262 26.1767 112.368 27.2785C113.488 28.3804 114.837 28.9314 116.402 28.9314C117.967 28.9314 119.317 28.3804 120.422 27.2927C121.557 26.1767 122.117 24.8205 122.117 23.2242L126.266 27.2785C127.371 28.3804 128.721 28.9314 130.286 28.9314C131.865 28.9314 133.215 28.3804 134.32 27.2785C135.44 26.1767 136 24.8488 136 23.2807C136 21.7126 135.44 20.3847 134.32 19.2829C134.32 19.2829 134.32 19.2829 134.306 19.2687L129.41 14.4657L132.741 11.2024Z" fill="white"/>
</svg>
